<?xml version="1.0" encoding="UTF-8" standalone="no"?>
<svg
   viewBox="0 0 512 512"
   version="1.1"
   id="svg1"
   sodipodi:docname="hand-dots.svg"
   inkscape:version="1.4 (86a8ad7, 2024-10-11)"
   xmlns:inkscape="http://www.inkscape.org/namespaces/inkscape"
   xmlns:sodipodi="http://sodipodi.sourceforge.net/DTD/sodipodi-0.dtd"
   xmlns:xlink="http://www.w3.org/1999/xlink"
   xmlns="http://www.w3.org/2000/svg"
   xmlns:svg="http://www.w3.org/2000/svg">
  <defs
     id="defs1">
    <linearGradient
       id="swatch1"
       inkscape:swatch="solid">
      <stop
         style="stop-color:#689572;stop-opacity:1;"
         offset="0"
         id="stop1" />
    </linearGradient>
    <linearGradient
       inkscape:collect="always"
       xlink:href="#swatch1"
       id="linearGradient1"
       x1="-0.050705564"
       y1="256"
       x2="480"
       y2="256"
       gradientUnits="userSpaceOnUse" />
  </defs>
  <sodipodi:namedview
     id="namedview1"
     pagecolor="#ffffff"
     bordercolor="#000000"
     borderopacity="0.25"
     inkscape:showpageshadow="2"
     inkscape:pageopacity="0.0"
     inkscape:pagecheckerboard="0"
     inkscape:deskcolor="#d1d1d1"
     inkscape:zoom="3.5449219"
     inkscape:cx="255.85895"
     inkscape:cy="255.85895"
     inkscape:window-width="1916"
     inkscape:window-height="2041"
     inkscape:window-x="1911"
     inkscape:window-y="0"
     inkscape:window-maximized="0"
     inkscape:current-layer="svg1" />
  <!--! Font Awesome Free 6.7.2 by @fontawesome - https://fontawesome.com License - https://fontawesome.com/license/free (Icons: CC BY 4.0, Fonts: SIL OFL 1.1, Code: MIT License) Copyright 2024 Fonticons, Inc. -->
  <path
     d="M288 32c0-17.7-14.3-32-32-32s-32 14.3-32 32l0 208c0 8.8-7.2 16-16 16s-16-7.2-16-16l0-176c0-17.7-14.3-32-32-32s-32 14.3-32 32l0 272c0 1.5 0 3.1 .1 4.6L67.6 283c-16-15.2-41.3-14.6-56.6 1.4s-14.6 41.3 1.4 56.6L124.8 448c43.1 41.1 100.4 64 160 64l19.2 0c97.2 0 176-78.8 176-176l0-208c0-17.7-14.3-32-32-32s-32 14.3-32 32l0 112c0 8.8-7.2 16-16 16s-16-7.2-16-16l0-176c0-17.7-14.3-32-32-32s-32 14.3-32 32l0 176c0 8.8-7.2 16-16 16s-16-7.2-16-16l0-208zM240 336a16 16 0 1 1 32 0 16 16 0 1 1 -32 0zm80 16a16 16 0 1 1 0 32 16 16 0 1 1 0-32zm48-16a16 16 0 1 1 32 0 16 16 0 1 1 -32 0zm-16 80a16 16 0 1 1 0 32 16 16 0 1 1 0-32zM240 432a16 16 0 1 1 32 0 16 16 0 1 1 -32 0zm-48-48a16 16 0 1 1 0 32 16 16 0 1 1 0-32z"
     id="path1"
     style="fill:url(#linearGradient1)" />
</svg>
