<?xml version="1.0" encoding="UTF-8" standalone="no"?>
<svg
   viewBox="0 0 448 512"
   version="1.1"
   id="svg1"
   sodipodi:docname="instagram.svg"
   inkscape:version="1.4 (86a8ad7, 2024-10-11)"
   xmlns:inkscape="http://www.inkscape.org/namespaces/inkscape"
   xmlns:sodipodi="http://sodipodi.sourceforge.net/DTD/sodipodi-0.dtd"
   xmlns="http://www.w3.org/2000/svg"
   xmlns:svg="http://www.w3.org/2000/svg">
  <defs
     id="defs1" />
  <sodipodi:namedview
     id="namedview1"
     pagecolor="#ffffff"
     bordercolor="#000000"
     borderopacity="0.25"
     inkscape:showpageshadow="2"
     inkscape:pageopacity="0.0"
     inkscape:pagecheckerboard="0"
     inkscape:deskcolor="#d1d1d1"
     inkscape:zoom="3.5449219"
     inkscape:cx="223.98237"
     inkscape:cy="278.2854"
     inkscape:window-width="1916"
     inkscape:window-height="2041"
     inkscape:window-x="1911"
     inkscape:window-y="0"
     inkscape:window-maximized="0"
     inkscape:current-layer="svg1" />
  <!--!Font Awesome Free 6.7.2 by @fontawesome - https://fontawesome.com License - https://fontawesome.com/license/free Copyright 2025 Fonticons, Inc.-->
  <path
     fill="#ffffff"
     d="M194.4 211.7a53.3 53.3 0 1 0 59.3 88.7 53.3 53.3 0 1 0 -59.3-88.7zm142.3-68.4c-5.2-5.2-11.5-9.3-18.4-12c-18.1-7.1-57.6-6.8-83.1-6.5c-4.1 0-7.9 .1-11.2 .1c-3.3 0-7.2 0-11.4-.1c-25.5-.3-64.8-.7-82.9 6.5c-6.9 2.7-13.1 6.8-18.4 12s-9.3 11.5-12 18.4c-7.1 18.1-6.7 57.7-6.5 83.2c0 4.1 .1 7.9 .1 11.1s0 7-.1 11.1c-.2 25.5-.6 65.1 6.5 83.2c2.7 6.9 6.8 13.1 12 18.4s11.5 9.3 18.4 12c18.1 7.1 57.6 6.8 83.1 6.5c4.1 0 7.9-.1 11.2-.1c3.3 0 7.2 0 11.4 .1c25.5 .3 64.8 .7 82.9-6.5c6.9-2.7 13.1-6.8 18.4-12s9.3-11.5 12-18.4c7.2-18 6.8-57.4 6.5-83c0-4.2-.1-8.1-.1-11.4s0-7.1 .1-11.4c.3-25.5 .7-64.9-6.5-83l0 0c-2.7-6.9-6.8-13.1-12-18.4zm-67.1 44.5A82 82 0 1 1 178.4 324.2a82 82 0 1 1 91.1-136.4zm29.2-1.3c-3.1-2.1-5.6-5.1-7.1-8.6s-1.8-7.3-1.1-11.1s2.6-7.1 5.2-9.8s6.1-4.5 9.8-5.2s7.6-.4 11.1 1.1s6.5 3.9 8.6 7s3.2 6.8 3.2 10.6c0 2.5-.5 5-1.4 7.3s-2.4 4.4-4.1 6.2s-3.9 3.2-6.2 4.2s-4.8 1.5-7.3 1.5l0 0c-3.8 0-7.5-1.1-10.6-3.2zM448 96c0-35.3-28.7-64-64-64H64C28.7 32 0 60.7 0 96V416c0 35.3 28.7 64 64 64H384c35.3 0 64-28.7 64-64V96zM357 389c-18.7 18.7-41.4 24.6-67 25.9c-26.4 1.5-105.6 1.5-132 0c-25.6-1.3-48.3-7.2-67-25.9s-24.6-41.4-25.8-67c-1.5-26.4-1.5-105.6 0-132c1.3-25.6 7.1-48.3 25.8-67s41.5-24.6 67-25.8c26.4-1.5 105.6-1.5 132 0c25.6 1.3 48.3 7.1 67 25.8s24.6 41.4 25.8 67c1.5 26.3 1.5 105.4 0 131.9c-1.3 25.6-7.1 48.3-25.8 67z"
     id="path1"
     style="fill:#aaaaaa;fill-opacity:0.68627453" />
  <path
     style="fill:#82a289;fill-opacity:1;stroke-width:0.282094"
     d="m 196.0551,415.77616 c -21.42889,-0.26097 -38.1676,-0.86484 -46.54546,-1.67919 C 125.05987,411.7203 107.02736,404.14752 92.410725,390.1181 76.146984,374.50779 67.909527,355.24652 65.738851,327.7525 63.768211,302.79216 63.6764,213.33461 65.593411,186.04077 67.587698,157.64669 75.921434,137.7087 92.410725,121.88188 108.12134,106.80245 127.63176,99.248801 155.43361,97.481948 c 13.28665,-0.844389 24.18474,-1.004172 68.54876,-1.005033 44.38737,-8.62e-4 55.67001,0.164642 68.40771,1.003469 21.99054,1.448161 38.1826,6.211076 51.67068,15.199016 5.40099,3.599 7.98669,5.74083 12.93103,10.71125 16.5732,16.66056 24.01421,36.01375 25.66073,66.74048 0.60681,11.32424 0.86363,24.28877 1.03382,52.18733 0.22678,37.17656 -0.28342,69.64908 -1.31859,83.92286 -1.85352,25.55858 -8.60837,43.55853 -22.12858,58.96711 -11.812,13.46182 -27.34987,22.38659 -46.12788,26.49537 -14.48125,3.16862 -28.92683,3.89072 -81.24297,4.06124 -16.36849,0.0534 -32.93444,0.0583 -36.81322,0.0111 z m 83.49972,-28.85076 c 27.03617,-1.68752 38.29778,-4.31465 48.94325,-11.41764 9.5504,-6.3723 16.32654,-14.85138 20.49639,-25.64739 3.16647,-8.19819 5.14536,-21.71527 6.03895,-41.2499 0.42117,-9.20688 0.42015,-96.37183 -10e-4,-105.36199 -0.77601,-16.55661 -2.26363,-28.53316 -4.56594,-36.75973 -3.22653,-11.52891 -9.80364,-21.04859 -19.57058,-28.32633 -11.39413,-8.49023 -23.36851,-11.4663 -52.7513,-13.11061 -8.94591,-0.50063 -100.50201,-0.49527 -109.17025,0.006 -20.58047,1.19107 -32.25143,3.11096 -40.60726,6.67995 -9.9613,4.25473 -18.30957,11.17656 -24.05883,19.94801 -7.437125,11.34654 -10.218712,24.92243 -11.373874,55.51163 -0.411933,10.90817 -0.199669,98.84129 0.254335,105.36198 0.932994,13.40018 1.770995,20.73159 3.152222,27.57783 1.981745,9.82278 5.508557,17.48377 11.394137,24.75054 6.72594,8.30433 16.23719,14.5504 26.57298,17.45052 9.30725,2.61153 23.26623,4.23013 41.43654,4.80473 10.48056,0.33143 97.9509,0.14776 103.81047,-0.218 z"
     id="path2" />
  <path
     style="fill:#82a289;fill-opacity:1;stroke-width:0.282094"
     d="m 215.66061,337.48558 c -18.39276,-1.89171 -36.13964,-10.30409 -49.31455,-23.3761 -9.88802,-9.8108 -17.23399,-22.19632 -21.05131,-35.49314 -10.4097,-36.25997 5.24612,-74.85191 38.00145,-93.67445 16.3031,-9.36842 36.06968,-12.84182 54.64981,-9.60312 17.54765,3.05874 34.37956,12.20711 46.16038,25.08878 11.45337,12.52362 18.42334,27.21088 21.0176,44.2887 0.8996,5.92207 0.89663,16.68297 -0.006,22.5675 -3.39955,22.15689 -14.42424,40.89897 -31.769,54.00761 -12.158,9.18865 -25.74295,14.50646 -41.46777,16.2325 -3.0262,0.33217 -12.84383,0.309 -16.22038,-0.0383 z m 13.13888,-28.18856 c 12.76908,-1.24634 24.05287,-6.51882 32.94906,-15.39581 6.38029,-6.36651 10.90708,-13.95243 13.52689,-22.66815 1.41443,-4.70561 1.92322,-7.98124 2.08763,-13.44043 0.28574,-9.48848 -1.32735,-17.05009 -5.40729,-25.34745 -7.34727,-14.94213 -20.72033,-25.26683 -37.3017,-28.79888 -4.62262,-0.98468 -13.13136,-1.25052 -17.83797,-0.55731 -15.38555,2.26602 -28.65095,10.50041 -37.02599,22.98358 -14.07161,20.97402 -11.80664,48.50722 5.49386,66.78401 11.18907,11.82048 27.54377,17.99939 43.51551,16.44044 z"
     id="path3" />
  <path
     style="fill:#82a289;fill-opacity:1;stroke-width:0.282094"
     d="m 304.8022,188.98273 c -0.85333,-0.22332 -2.63052,-0.93096 -3.94931,-1.57253 -3.35475,-1.63205 -6.74553,-5.02645 -8.42567,-8.43467 -5.23199,-10.61327 0.20055,-23.16355 11.5287,-26.6337 2.42537,-0.74296 6.81966,-0.88765 9.41596,-0.31003 5.45539,1.21371 10.53002,5.13603 13.03145,10.07238 2.40244,4.74097 2.44738,11.99986 0.1031,16.64985 -1.03828,2.05948 -2.99566,4.62222 -4.67062,6.11508 -1.8346,1.63515 -5.41166,3.51746 -7.85431,4.13306 -2.1246,0.53545 -7.09926,0.52491 -9.1793,-0.0194 z"
     id="path4" />
  <path
     style="fill:#ffffff;fill-opacity:1;stroke-width:0.282094"
     d="M 59.239669,479.6735 C 49.669041,478.9694 39.12794,475.57731 30.890743,470.55091 24.931069,466.91427 18.76938,461.5214 14.453697,456.16472 6.5923738,446.40716 1.6385315,434.34105 0.44090596,422.03364 0.01963637,417.70447 0.01963637,94.295522 0.44090596,89.966349 1.9241369,74.723937 8.7741685,60.630126 19.864261,50.003165 c 5.09816,-4.885257 10.034488,-8.336334 16.243728,-11.356286 7.911954,-3.848091 15.337768,-5.791727 24.260055,-6.34984 5.492479,-0.343569 321.499386,-0.355822 327.099676,-0.01268 18.12455,1.110517 33.90422,9.066815 45.62761,23.006002 8.05656,9.5793 13.18757,21.844157 14.4397,34.515838 0.40762,4.125335 0.40054,328.794841 -0.007,332.569651 -1.27961,11.84452 -5.37643,22.3111 -12.50033,31.936 -2.61778,3.53677 -9.19369,10.10338 -12.77552,12.75743 -10.22595,7.57715 -21.42109,11.70959 -34.22349,12.63289 -4.67116,0.33684 -324.198882,0.309 -328.788741,-0.0287 z M 254.73058,415.94677 c 26.34727,-0.36901 37.23145,-0.80261 46.45408,-1.85062 24.8298,-2.8215 43.02987,-11.31438 57.59665,-26.87695 13.75006,-14.69 21.04128,-32.17146 23.4327,-56.18229 1.08245,-10.8685 1.52277,-26.19047 1.75098,-60.93223 0.23549,-35.84372 -0.30048,-70.18383 -1.31864,-84.48705 -1.8682,-26.24473 -8.92175,-44.56414 -23.18929,-60.227 -13.36043,-14.66705 -30.9804,-23.4814 -53.52648,-26.776513 -14.32703,-2.0939 -37.23774,-2.70534 -92.66777,-2.473121 -48.91061,0.204907 -60.66191,0.663157 -73.9671,2.884405 -19.70244,3.289239 -35.61138,11.108809 -48.181787,23.682319 -13.432626,13.43594 -21.147191,29.45236 -24.390168,50.6371 -2.075831,13.56037 -2.654718,31.64202 -2.650729,82.79623 0.0051,65.43676 0.895751,80.23739 5.860857,97.39413 7.113378,24.58001 25.331638,44.64745 48.963397,53.93329 11.20634,4.4034 23.16965,6.66294 40.34459,7.62 16.55339,0.92245 61.84283,1.32951 95.48871,0.8583 z"
     id="path5" />
  <path
     style="fill:#ffffff;fill-opacity:1;stroke-width:0.282094"
     d="m 174.75702,386.86164 c -15.96518,-0.57669 -29.71313,-2.08968 -38.06932,-4.18959 -12.67399,-3.18499 -22.70451,-9.80152 -30.27028,-19.9675 -8.7095,-11.70277 -11.581698,-23.66555 -13.157025,-54.79932 -0.346404,-6.8461 -0.372001,-93.51573 -0.03012,-101.97686 0.860812,-21.30387 2.723966,-34.70732 6.087395,-43.79245 5.07651,-13.71242 16.37376,-25.09826 30.43359,-30.67224 8.64611,-3.42773 22.77622,-5.47399 43.5953,-6.31326 6.94598,-0.28001 92.49023,-0.28526 99.86115,-0.006 21.86848,0.82814 36.69616,2.92656 45.36999,6.42078 2.81609,1.13445 7.22272,3.4632 9.74188,5.14824 7.83509,5.2408 13.41552,11.35284 17.73595,19.42553 5.09952,9.5284 7.54101,22.64194 8.69214,46.6865 0.42552,8.88805 0.42479,97.53988 -8.7e-4,106.34932 -0.95073,19.67639 -2.89155,32.60393 -6.14089,40.90358 -4.94701,12.63595 -13.99246,22.48517 -26.2936,28.63004 -8.94351,4.4676 -20.97455,6.71779 -42.33435,7.91789 -6.66677,0.37456 -95.84516,0.57414 -105.22094,0.23547 z m 60.5091,-49.44761 c 13.2724,-2.09842 24.06748,-6.23166 34.40608,-13.17347 5.09487,-3.42093 7.85182,-5.68822 12.30739,-10.12149 7.47354,-7.43614 12.96222,-15.41171 17.18613,-24.97306 8.15321,-18.45583 9.19197,-39.41456 2.9081,-58.67549 -9.42306,-28.88297 -33.83332,-50.01393 -63.98677,-55.39071 -10.2234,-1.82297 -22.77482,-1.46205 -32.80432,0.94332 -17.78215,4.26467 -32.79116,13.49028 -44.2512,27.19994 -23.49058,28.10179 -25.64473,68.00602 -5.31603,98.4761 3.27091,4.90269 5.58018,7.70816 10.00675,12.157 13.51856,13.58656 30.55457,21.72599 50.10803,23.94052 3.45063,0.39081 16.1216,0.14133 19.43584,-0.38266 z M 313.9815,189.28204 c 2.2658,-0.57402 5.88474,-2.39058 7.58443,-3.80708 3.06478,-2.55414 5.40615,-6.25209 6.38718,-10.08786 0.67223,-2.62842 0.72837,-7.12202 0.11902,-9.52728 -1.55334,-6.13141 -6.35522,-11.30969 -12.51715,-13.4983 -2.2624,-0.80356 -2.69515,-0.86276 -6.23928,-0.85351 -3.37387,0.009 -4.07258,0.0975 -6.12552,0.77798 -7.43174,2.4632 -12.59243,9.32458 -12.97608,17.2523 -0.37374,7.72296 3.60623,14.63827 10.3567,17.99505 1.47394,0.73294 3.37807,1.51372 4.2314,1.73507 2.09189,0.54262 7.06213,0.55 9.1793,0.0136 z"
     id="path6" />
  <path
     style="fill:#ffffff;fill-opacity:1;stroke-width:0.282094"
     d="m 218.93754,309.02662 c -8.91545,-1.02259 -16.64861,-3.73933 -23.82867,-8.37125 -16.82048,-10.85103 -26.28411,-30.88807 -23.88897,-50.57934 0.50757,-4.17284 1.02404,-6.54349 2.28507,-10.48856 5.29095,-16.55257 19.00067,-29.80227 35.82839,-34.62619 24.3183,-6.97122 50.19801,4.12705 61.87411,26.53411 6.91297,13.26637 7.89077,29.08982 2.66238,43.0845 -6.66222,17.83257 -22.15829,30.65065 -41.00153,33.91575 -3.7298,0.64629 -10.63183,0.90936 -13.93078,0.53098 z"
     id="path7" />
  <path
     style="fill:#ffffff;fill-opacity:1;stroke-width:0.282094"
     d=""
     id="path8" />
  <path
     style="fill:#ffffff;fill-opacity:1;stroke-width:0.282094"
     d="M 58.111295,479.41065 C 48.543075,478.61323 37.391653,474.66513 29.055647,469.12374 13.255362,458.62038 2.7542525,441.53994 0.71628131,423.02867 0.38900409,420.05594 0.15853441,211.12299 0.40289912,138.93113 L 0.57429802,88.295317 1.2197988,85.05124 C 3.8840659,71.661497 9.3638154,61.092514 18.605513,51.518808 23.601479,46.343362 29.24944,42.274254 36.107989,38.909041 42.70957,35.669913 49.021969,33.748322 56.136639,32.812014 58.441344,32.508709 89.286168,32.440771 224.6876,32.440771 h 165.73003 l 4.09036,0.761049 c 14.26694,2.654492 25.41204,8.566124 35.19118,18.666243 9.68019,9.997913 15.48136,21.943654 17.41604,35.863066 0.32785,2.358659 0.41014,21.358311 0.50207,115.940501 0.0605,62.21575 0.0321,137.30203 -0.0631,166.8584 l -0.17309,53.73884 -0.90848,4.16997 c -2.4644,11.31181 -7.55848,21.5258 -14.66239,29.39918 -10.77039,11.93699 -22.60518,18.44731 -38.57162,21.21824 -2.65414,0.46063 -12.57103,0.49183 -167.70469,0.52779 -90.68606,0.021 -166.026222,-0.057 -167.422585,-0.1734 z M 276.45179,415.68473 c 10.84924,-0.36046 18.00576,-0.76611 23.13168,-1.31114 27.4485,-2.91857 46.62653,-12.21446 61.94207,-30.02422 11.52815,-13.40562 18.1795,-29.98782 20.54418,-51.21788 1.39205,-12.49791 1.71044,-23.58563 1.90715,-66.41193 0.1947,-42.39789 -0.23152,-68.85495 -1.32926,-82.5124 -2.21313,-27.53493 -10.27517,-46.4746 -26.54064,-62.35033 -13.97997,-13.64502 -31.90242,-21.45352 -54.97198,-23.950339 -12.66578,-1.370821 -21.48288,-1.613266 -64.31736,-1.768564 -51.20868,-0.185657 -75.35666,0.220151 -87.87218,1.476704 -18.45454,1.852825 -33.17055,6.678609 -45.57201,14.944329 -4.746172,3.16337 -7.408888,5.31403 -11.511486,9.29775 -11.653941,11.31625 -19.004213,24.30709 -23.147813,40.91133 -2.572912,10.31018 -3.613922,19.98777 -4.308936,40.0573 -0.472281,13.63782 -0.471353,93.31193 0.0012,106.34932 0.901521,24.87019 2.474151,36.19216 6.734913,48.48719 8.596666,24.80683 28.06329,43.76928 53.261952,51.88246 13.43455,4.32552 26.57523,5.78637 57.5471,6.39758 15.37258,0.30336 83.18431,0.11884 94.50138,-0.25716 z"
     id="path9" />
  <path
     style="fill:#ffffff;fill-opacity:1;stroke-width:0.282094"
     d="M 58.111295,479.41065 C 46.539666,478.44626 33.95294,473.3677 24.542149,465.86601 11.294382,455.30572 2.549494,439.6175 0.72618339,423.1405 0.38722193,420.07735 0.14656927,209.33378 0.39922256,136.81543 L 0.56924902,88.013223 1.2211717,84.910193 C 3.0207526,76.344523 5.7124204,69.321107 9.5953954,63.059181 19.77424,46.644148 35.745961,36.025535 54.867218,32.960739 c 3.125513,-0.500964 9.311522,-0.519968 169.256202,-0.519968 158.52608,0 166.14569,0.02288 168.9741,0.507345 14.32996,2.454511 25.0906,7.744392 34.77242,17.09397 10.25128,9.899501 16.16741,20.976765 18.99895,35.573341 0.41933,2.161701 0.48884,8.814053 0.70594,67.561433 0.29188,78.98489 0.0511,267.21382 -0.34616,270.66887 -1.36733,11.89056 -7.33017,25.04997 -15.40584,33.9992 -10.72954,11.89016 -22.66171,18.46873 -38.44322,21.19491 -2.83608,0.48994 -9.96995,0.51318 -167.84573,0.54703 -90.68606,0.0195 -166.026222,-0.0598 -167.422585,-0.17622 z M 260.2314,415.94539 c 29.54647,-0.46114 39.67544,-1.11329 50.91791,-3.27838 20.22409,-3.89476 35.86787,-12.33108 48.36248,-26.08072 12.76426,-14.0464 19.66974,-30.14839 22.43155,-52.3053 1.67524,-13.43981 2.10862,-32.33791 1.97965,-86.32066 -0.085,-35.56833 -0.2769,-47.11383 -0.98465,-59.23967 -1.70994,-29.29541 -9.19843,-48.73709 -25.08027,-65.11352 -4.29143,-4.42507 -7.99654,-7.52049 -12.99885,-10.85985 -14.85,-9.91328 -30.83611,-14.402587 -56.41845,-15.843752 -20.50171,-1.154948 -108.2154,-1.154266 -129.76308,0.001 -26.60658,1.426511 -44.41499,7.076932 -60.138712,19.081372 -3.680394,2.80984 -10.745148,9.79981 -13.752858,13.60727 -11.17577,14.14745 -17.03397,30.04425 -19.190418,52.07513 -1.235136,12.6185 -1.519988,26.50821 -1.524397,74.33168 -0.0048,51.67918 0.364925,65.67685 2.101008,79.55041 2.744833,21.93482 10.293609,38.67688 23.72784,52.62477 11.783757,12.23429 26.906787,20.34925 44.877077,24.08079 11.07553,2.29985 23.30638,3.24151 47.62943,3.66699 18.38249,0.32156 57.9276,0.33296 77.82474,0.0224 z"
     id="path10" />
</svg>
