<?xml version="1.0" encoding="UTF-8" standalone="no"?>
<svg
   viewBox="0 0 512 512"
   version="1.1"
   id="svg1"
   sodipodi:docname="mug-hot-pink.svg"
   inkscape:version="1.4 (86a8ad7, 2024-10-11)"
   xmlns:inkscape="http://www.inkscape.org/namespaces/inkscape"
   xmlns:sodipodi="http://sodipodi.sourceforge.net/DTD/sodipodi-0.dtd"
   xmlns:xlink="http://www.w3.org/1999/xlink"
   xmlns="http://www.w3.org/2000/svg"
   xmlns:svg="http://www.w3.org/2000/svg">
  <defs
     id="defs1">
    <linearGradient
       id="swatch1"
       inkscape:swatch="solid">
      <stop
         style="stop-color:#faa196;stop-opacity:1;"
         offset="0"
         id="stop1" />
    </linearGradient>
    <linearGradient
       inkscape:collect="always"
       xlink:href="#swatch1"
       id="linearGradient1"
       x1="0"
       y1="256"
       x2="512"
       y2="256"
       gradientUnits="userSpaceOnUse" />
  </defs>
  <sodipodi:namedview
     id="namedview1"
     pagecolor="#ffffff"
     bordercolor="#000000"
     borderopacity="0.25"
     inkscape:showpageshadow="2"
     inkscape:pageopacity="0.0"
     inkscape:pagecheckerboard="0"
     inkscape:deskcolor="#d1d1d1"
     inkscape:zoom="3.5449219"
     inkscape:cx="255.85895"
     inkscape:cy="255.85895"
     inkscape:window-width="1916"
     inkscape:window-height="2041"
     inkscape:window-x="1911"
     inkscape:window-y="0"
     inkscape:window-maximized="0"
     inkscape:current-layer="svg1" />
  <!--! Font Awesome Free 6.7.2 by @fontawesome - https://fontawesome.com License - https://fontawesome.com/license/free (Icons: CC BY 4.0, Fonts: SIL OFL 1.1, Code: MIT License) Copyright 2024 Fonticons, Inc. -->
  <path
     d="m 424,0 c 13.3,0 24,10.7 24,24 0,38.9 -23.4,59.4 -39.1,73.1 l -1.1,1 C 391.5,112.3 384,119.9 384,136 c 0,13.3 -10.7,24 -24,24 -13.3,0 -24,-10.7 -24,-24 0,-38.9 23.4,-59.4 39.1,-73.1 l 1.1,-1 C 392.5,47.7 400,40.1 400,24 400,10.7 410.7,0 424,0 Z m 56,192 c 17.7,0 32,14.3 32,32 v 192 c 0,53 -43,96 -96,96 H 224 c -53,0 -96,-43 -96,-96 H 112 C 50.1,416 0,365.9 0,304 0,242.1 50.1,192 112,192 h 48 z m -352,64 h -16 c -26.5,0 -48,21.5 -48,48 0,26.5 21.5,48 48,48 h 16 z M 288,24 c 0,-13.3 10.7,-24 24,-24 13.3,0 24,10.7 24,24 0,38.9 -23.4,59.4 -39.1,73.1 l -1.1,1 C 279.5,112.3 272,119.9 272,136 c 0,13.3 -10.7,24 -24,24 -13.3,0 -24,-10.7 -24,-24 0,-38.9 23.4,-59.4 39.1,-73.1 l 1.1,-1 C 280.5,47.7 288,40.1 288,24 Z"
     id="path1"
     style="fill:url(#linearGradient1)" />
</svg>
