<?xml version="1.0" encoding="UTF-8" standalone="no"?>
<svg
   viewBox="0 0 448 512"
   version="1.1"
   id="svg1"
   sodipodi:docname="quote-left.svg"
   inkscape:version="1.4 (86a8ad7, 2024-10-11)"
   xmlns:inkscape="http://www.inkscape.org/namespaces/inkscape"
   xmlns:sodipodi="http://sodipodi.sourceforge.net/DTD/sodipodi-0.dtd"
   xmlns:xlink="http://www.w3.org/1999/xlink"
   xmlns="http://www.w3.org/2000/svg"
   xmlns:svg="http://www.w3.org/2000/svg">
  <defs
     id="defs1">
    <linearGradient
       id="swatch1"
       inkscape:swatch="solid">
      <stop
         style="stop-color:#404040;stop-opacity:1;"
         offset="0"
         id="stop1" />
    </linearGradient>
    <linearGradient
       inkscape:collect="always"
       xlink:href="#swatch1"
       id="linearGradient1"
       x1="0"
       y1="256"
       x2="448"
       y2="256"
       gradientUnits="userSpaceOnUse" />
  </defs>
  <sodipodi:namedview
     id="namedview1"
     pagecolor="#ffffff"
     bordercolor="#000000"
     borderopacity="0.25"
     inkscape:showpageshadow="2"
     inkscape:pageopacity="0.0"
     inkscape:pagecheckerboard="0"
     inkscape:deskcolor="#d1d1d1"
     inkscape:zoom="3.5449219"
     inkscape:cx="223.98237"
     inkscape:cy="255.85895"
     inkscape:window-width="1916"
     inkscape:window-height="2041"
     inkscape:window-x="1911"
     inkscape:window-y="0"
     inkscape:window-maximized="0"
     inkscape:current-layer="svg1" />
  <!--! Font Awesome Free 6.7.2 by @fontawesome - https://fontawesome.com License - https://fontawesome.com/license/free (Icons: CC BY 4.0, Fonts: SIL OFL 1.1, Code: MIT License) Copyright 2024 Fonticons, Inc. -->
  <path
     d="M0 216C0 149.7 53.7 96 120 96l8 0c17.7 0 32 14.3 32 32s-14.3 32-32 32l-8 0c-30.9 0-56 25.1-56 56l0 8 64 0c35.3 0 64 28.7 64 64l0 64c0 35.3-28.7 64-64 64l-64 0c-35.3 0-64-28.7-64-64l0-32 0-32 0-72zm256 0c0-66.3 53.7-120 120-120l8 0c17.7 0 32 14.3 32 32s-14.3 32-32 32l-8 0c-30.9 0-56 25.1-56 56l0 8 64 0c35.3 0 64 28.7 64 64l0 64c0 35.3-28.7 64-64 64l-64 0c-35.3 0-64-28.7-64-64l0-32 0-32 0-72z"
     id="path1"
     style="fill:url(#linearGradient1)" />
</svg>
